<svg width="414" height="148" viewBox="0 0 414 148" fill="none" xmlns="http://www.w3.org/2000/svg">
<line x1="276.5" y1="63" x2="276.5" y2="142" stroke="#002D57"/>
<path d="M-8 26.2358C-8 26.2358 15.4417 11.3982 31.2273 11.2773C64.1033 11.0256 71.8303 75.2529 104.701 74.294C135.58 73.3931 142.803 18.1864 173.608 14.7783C207.345 11.0457 219.375 75.2176 252.893 68.2469C282.148 62.1629 285.46 4.14997 314.951 2.04761C345.333 -0.118324 352.219 72.3797 381.99 62.8364C395.276 58.5778 412.293 36.7386 412.293 36.7386" stroke="#FFD703" stroke-width="3"/>
<path opacity="0.05" d="M30.8707 11.2773C15.2286 11.3982 -8 26.2358 -8 26.2358V147H408.471V36.7386C408.471 36.7386 391.609 58.5778 378.444 62.8364C348.943 72.3797 342.121 -0.118324 312.015 2.04761C282.792 4.14997 279.509 62.1629 250.521 68.2469C217.308 75.2176 205.387 11.0457 171.957 14.7783C141.432 18.1864 134.275 73.3931 103.676 74.294C71.1044 75.253 63.4478 11.0256 30.8707 11.2773Z" fill="#FFD703" stroke="#FFD703"/>
<circle cx="276" cy="49" r="6" fill="#FFD703"/>
</svg>
