<svg width="414" height="148" viewBox="0 0 414 148" fill="none" xmlns="http://www.w3.org/2000/svg">
<line x1="276.5" y1="63" x2="276.5" y2="142" stroke="#002D57"/>
<path d="M-8 26.2358C-8 26.2358 15.4417 11.3982 31.2273 11.2773C64.1033 11.0256 71.8303 75.2529 104.701 74.294C135.58 73.3931 142.803 18.1864 173.608 14.7783C207.345 11.0457 219.375 75.2176 252.893 68.2469C282.148 62.1629 285.46 4.14997 314.951 2.04761C345.333 -0.118324 352.219 72.3797 381.99 62.8364C395.276 58.5778 412.293 36.7386 412.293 36.7386" stroke="#FFD703" stroke-width="3"/>
<path opacity="0.05" d="M30.8707 11.2773C15.2286 11.3982 -8 26.2358 -8 26.2358V147H408.471V36.7386C408.471 36.7386 391.609 58.5778 378.444 62.8364C348.943 72.3797 342.121 -0.118324 312.015 2.04761C282.792 4.14997 279.509 62.1629 250.521 68.2469C217.308 75.2176 205.387 11.0457 171.957 14.7783C141.432 18.1864 134.275 73.3931 103.676 74.294C71.1044 75.253 63.4478 11.0256 30.8707 11.2773Z" fill="#FFD703" stroke="#FFD703"/>
<circle cx="276" cy="49" r="6" fill="#FFD703"/>
<path d="M256.022 36.2727H257.195L257.205 35.1243C259.358 34.9602 260.606 33.8168 260.611 32.0916C260.606 30.3963 259.328 29.4964 257.558 29.0987L257.265 29.0291L257.285 26.5433C257.946 26.6974 258.349 27.12 258.408 27.7464H260.472C260.447 26.1009 259.219 24.9226 257.305 24.7138L257.315 23.5455H256.141L256.131 24.7038C254.188 24.8928 252.815 26.0661 252.825 27.7614C252.82 29.2628 253.879 30.1229 255.599 30.5355L256.077 30.6548L256.052 33.2848C255.241 33.1307 254.695 32.6335 254.64 31.8033H252.557C252.607 33.8118 253.924 34.9354 256.032 35.1193L256.022 36.2727ZM257.225 33.2848L257.245 30.9631C258.016 31.2067 258.433 31.5199 258.438 32.0866C258.433 32.6882 257.976 33.1357 257.225 33.2848ZM256.092 28.7259C255.47 28.5121 255.023 28.1889 255.033 27.6172C255.033 27.0852 255.411 26.6726 256.112 26.5284L256.092 28.7259ZM265.763 35.1392C268.05 35.1392 269.685 33.8814 269.68 32.1413C269.685 30.8736 268.88 29.9688 267.383 29.7798V29.7003C268.522 29.4964 269.307 28.6911 269.302 27.5476C269.307 25.9418 267.9 24.679 265.792 24.679C263.704 24.679 262.133 25.902 262.104 27.6619H264.167C264.192 26.8864 264.903 26.3842 265.782 26.3842C266.653 26.3842 267.234 26.9112 267.229 27.6768C267.234 28.4773 266.553 29.0192 265.574 29.0192H264.624V30.6001H265.574C266.727 30.6001 267.448 31.1768 267.443 31.9972C267.448 32.8075 266.752 33.3643 265.768 33.3643C264.818 33.3643 264.107 32.8672 264.067 32.1214H261.9C261.934 33.9013 263.525 35.1392 265.763 35.1392ZM273.262 33.608H271.512L271.487 34.1648C271.428 35.517 271.04 36.9041 270.896 37.4858H272.268C272.507 36.8842 273.073 35.4723 273.208 34.1548L273.262 33.608ZM278.567 35.1392C280.864 35.1392 282.514 33.9112 282.519 32.2607C282.514 30.9879 281.535 29.9489 280.312 29.745V29.6754C281.376 29.4567 282.137 28.5369 282.142 27.4183C282.137 25.8423 280.625 24.679 278.567 24.679C276.504 24.679 274.992 25.8423 274.997 27.4183C274.992 28.532 275.743 29.4567 276.827 29.6754V29.745C275.584 29.9489 274.615 30.9879 274.619 32.2607C274.615 33.9112 276.27 35.1392 278.567 35.1392ZM278.567 33.5582C277.543 33.5582 276.857 32.9517 276.857 32.0916C276.857 31.2116 277.578 30.5753 278.567 30.5753C279.551 30.5753 280.277 31.2116 280.277 32.0916C280.277 32.9567 279.586 33.5582 278.567 33.5582ZM278.567 29.0092C277.707 29.0092 277.095 28.4474 277.095 27.642C277.095 26.8466 277.697 26.2997 278.567 26.2997C279.432 26.2997 280.039 26.8516 280.039 27.642C280.039 28.4474 279.422 29.0092 278.567 29.0092ZM288.454 24.8182H286.431L283.91 26.4141V28.3232L286.242 26.8615H286.301V35H288.454V24.8182ZM295.304 24.8182H293.28L290.76 26.4141V28.3232L293.091 26.8615H293.151V35H295.304V24.8182Z" fill="#002D57"/>
</svg>
