<svg width="423" height="148" viewBox="0 0 423 148" fill="none" xmlns="http://www.w3.org/2000/svg">
<path d="M1 26.2358C1 26.2358 24.4417 11.3982 40.2273 11.2773C73.1033 11.0256 80.8303 75.2529 113.701 74.294C144.58 73.3931 151.803 18.1864 182.608 14.7783C216.345 11.0457 228.375 75.2176 261.893 68.2469C291.148 62.1629 294.46 4.14997 323.951 2.04761C354.333 -0.118324 361.219 72.3797 390.99 62.8364C404.276 58.5778 421.293 36.7386 421.293 36.7386" stroke="#FFD703" stroke-width="3"/>
<path opacity="0.05" d="M39.8707 11.2773C24.2286 11.3982 1 26.2358 1 26.2358V147H417.471V36.7386C417.471 36.7386 400.609 58.5778 387.444 62.8364C357.943 72.3797 351.121 -0.118324 321.015 2.04761C291.792 4.14997 288.509 62.1629 259.521 68.2469C226.308 75.2176 214.387 11.0457 180.957 14.7783C150.432 18.1864 143.275 73.3931 112.676 74.294C80.1045 75.253 72.4478 11.0256 39.8707 11.2773Z" fill="#FFD703" stroke="#FFD703"/>
</svg>
