<svg width="20" height="26" viewBox="0 0 20 26" fill="none" xmlns="http://www.w3.org/2000/svg">
<path d="M13.8375 0.5C17.225 0.5 19.9625 1.8375 20 5.2375V24.2125C20 24.425 19.95 24.6375 19.85 24.825C19.6875 25.125 19.4125 25.35 19.075 25.45C18.75 25.55 18.3875 25.5 18.0875 25.325L9.9875 21.275L1.875 25.325C1.68875 25.4237 1.475 25.4875 1.2625 25.4875C0.5625 25.4875 0 24.9125 0 24.2125V5.2375C0 1.8375 2.75 0.5 6.125 0.5H13.8375ZM14.6875 8.05H5.275C4.7375 8.05 4.3 8.4875 4.3 9.0375C4.3 9.58625 4.7375 10.025 5.275 10.025H14.6875C15.225 10.025 15.6625 9.58625 15.6625 9.0375C15.6625 8.4875 15.225 8.05 14.6875 8.05Z" fill="#B8B8B8"/>
</svg>
