<svg width="25" height="17" viewBox="0 0 25 17" fill="none" xmlns="http://www.w3.org/2000/svg">
<path d="M14.0997 8.00403L14.1018 8.49091C14.1018 10.5144 13.9833 12.3592 13.8048 13.5618L13.6485 14.3096C13.5615 14.7057 13.4471 15.1566 13.3278 15.3869C12.8913 16.229 12.0379 16.75 11.1244 16.75H11.0449C10.4494 16.7303 9.19839 16.2078 9.19839 16.1896C7.18541 15.345 3.30188 12.7959 1.50825 10.9786L0.987026 10.433C0.850537 10.2851 0.697193 10.1101 0.601994 9.9737C0.283998 9.55264 0.125 9.03162 0.125 8.5106C0.125 7.929 0.303499 7.38829 0.640995 6.94603L1.1765 6.3681L1.29649 6.24477C2.92397 4.48026 7.17341 1.59496 9.39639 0.711952L9.73201 0.583329C10.1359 0.438567 10.7017 0.265903 11.0449 0.25C11.4814 0.25 11.8984 0.351478 12.2959 0.551404C12.7923 0.831604 13.1883 1.27387 13.4073 1.79489C13.5468 2.15536 13.7658 3.2383 13.7658 3.25799C13.9666 4.34989 14.083 6.07288 14.0997 8.00403ZM24.875 8.50061C24.875 9.65321 23.9495 10.5877 22.808 10.5877L17.7216 10.1379C16.8261 10.1379 16.1001 9.40482 16.1001 8.50061C16.1001 7.59488 16.8261 6.86333 17.7216 6.86333L22.808 6.41349C23.9495 6.41349 24.875 7.348 24.875 8.50061Z" fill="black"/>
</svg>
